<?xml version="1.0" encoding="utf-8"?>
<!-- Generator: Adobe Illustrator 14.0.0, SVG Export Plug-In . SVG Version: 6.00 Build 43363)  -->
<!DOCTYPE svg PUBLIC "-//W3C//DTD SVG 1.1//EN" "http://www.w3.org/Graphics/SVG/1.1/DTD/svg11.dtd">
<svg version="1.1" id="Logo" xmlns="http://www.w3.org/2000/svg" xmlns:xlink="http://www.w3.org/1999/xlink" x="0px" y="0px"
	 width="242px" height="298px" viewBox="0 0 242 298" enable-background="new 0 0 242 298" xml:space="preserve">
<path fill="#626366" d="M171.422,202.446h-43.584c-3.608-1.281-7.327-1.927-11.052-1.927c-0.145,0-0.286,0.004-0.428,0.017
	c-0.142-0.013-0.285-0.017-0.427-0.017c-3.723,0-7.443,0.646-11.055,1.927H61.292c-2.184,0-3.961,1.576-3.961,3.52v24.439
	c0,1.939,1.777,3.52,3.961,3.52h45.87c2.184,0,3.962-1.58,3.962-3.52V209.91c1.157-0.238,2.315-0.394,3.461-0.458l0.002,0.044
	l1.771-0.065l1.91,0.045v-0.016c1.104,0.068,2.214,0.221,3.325,0.45v20.495c0,1.939,1.777,3.52,3.961,3.52h45.868
	c2.185,0,3.962-1.58,3.962-3.52v-24.439C175.384,204.022,173.606,202.446,171.422,202.446 M166.219,211.056v14.255
	c0,0.225-0.396,0.56-0.996,0.56h-33.47c-0.601,0-0.998-0.335-0.998-0.56v-14.255c0-0.221,0.397-0.555,0.998-0.555h33.47
	C165.823,210.501,166.219,210.835,166.219,211.056 M101.961,211.056v14.255c0,0.225-0.397,0.56-0.996,0.56H67.491
	c-0.599,0-0.998-0.335-0.998-0.56v-14.255c0-0.221,0.399-0.555,0.998-0.555h33.474C101.564,210.501,101.961,210.835,101.961,211.056
	"/>
<g>
	<defs>
		<path id="SVGID_1_" d="M82.766,31.526c-4.939,12.846-40.304,58.762-48.419,78.063c-9.139,21.742-6.915,45.455,0,57.309
			c6.916,11.859,20.751,23.718,20.751,23.718h127.967c0,0,19.763-27.17,15.316-54.84c-3.306-20.558-14.331-22.725-14.331-22.725
			s-5.433,12.353-12.349,24.207c-6.918,11.855-8.584,6.67-8.584,6.67s17.478-32.364,16.485-48.174
			c-0.985-15.81-20.75-55.334-20.75-55.334s-2.899,25.567-10.866,41.504c-8.4,16.798-20.259,41.255-25.447,38.536
			c-5.927-3.707,18.778-50.644,3.233-72.137C111.464,28.533,80.791,1.88,80.791,1.88S87.706,18.679,82.766,31.526"/>
	</defs>
	<clipPath id="SVGID_2_">
		<use xlink:href="#SVGID_1_"  overflow="visible"/>
	</clipPath>
	
		<linearGradient id="SVGID_3_" gradientUnits="userSpaceOnUse" x1="-485.4956" y1="583.4053" x2="-484.4956" y2="583.4053" gradientTransform="matrix(-43.2747 -142.256 -142.256 43.2747 62131.5469 -94102.0391)">
		<stop  offset="0" style="stop-color:#96281F"/>
		<stop  offset="0.1166" style="stop-color:#96281F"/>
		<stop  offset="0.8773" style="stop-color:#F18121"/>
		<stop  offset="1" style="stop-color:#F18121"/>
	</linearGradient>
	<polygon clip-path="url(#SVGID_2_)" fill="url(#SVGID_3_)" points="40.252,240.072 -27.343,17.866 187.783,-47.576 255.379,174.63 
			"/>
</g>
<g>
	<defs>
		<path id="SVGID_4_" d="M82.766,31.526c-4.939,12.846-40.304,58.762-48.419,78.063c-9.139,21.742-6.915,45.455,0,57.309
			c6.916,11.859,20.751,23.718,20.751,23.718h127.967c0,0,19.763-27.17,15.316-54.84c-3.306-20.558-14.331-22.725-14.331-22.725
			s-5.433,12.353-12.349,24.207c-6.918,11.855-8.584,6.67-8.584,6.67s17.478-32.364,16.485-48.174
			c-0.985-15.81-20.75-55.334-20.75-55.334s-3.627,25.225-10.866,41.504c-8.205,18.439-19.52,42.614-25.447,38.536
			c-5.927-3.707,18.778-50.644,3.233-72.137C111.464,28.533,80.791,1.88,80.791,1.88S87.706,18.679,82.766,31.526"/>
	</defs>
	<clipPath id="SVGID_5_">
		<use xlink:href="#SVGID_4_"  overflow="visible"/>
	</clipPath>
	
		<linearGradient id="SVGID_6_" gradientUnits="userSpaceOnUse" x1="-485.4956" y1="583.4053" x2="-484.4956" y2="583.4053" gradientTransform="matrix(-43.2747 -142.256 -142.256 43.2747 62131.5469 -94102.0391)">
		<stop  offset="0" style="stop-color:#96281F"/>
		<stop  offset="0.1166" style="stop-color:#96281F"/>
		<stop  offset="0.8773" style="stop-color:#F18121"/>
		<stop  offset="1" style="stop-color:#F18121"/>
	</linearGradient>
	<polygon clip-path="url(#SVGID_5_)" fill="url(#SVGID_6_)" points="40.252,240.072 -27.343,17.866 187.783,-47.576 255.379,174.63 
			"/>
</g>
<g>
	<defs>
		<path id="SVGID_7_" d="M82.766,31.526c-4.939,12.846-40.304,58.762-48.419,78.063c-9.139,21.742-6.915,45.455,0,57.309
			c6.916,11.859,20.751,23.718,20.751,23.718h127.967c0,0,15.872-20.256,11.427-47.924c-3.303-20.559-10.441-29.641-10.441-29.641
			s-5.433,12.353-12.349,24.207c-6.918,11.855-8.584,6.67-8.584,6.67s17.478-32.364,16.485-48.174
			c-0.985-15.81-20.75-55.334-20.75-55.334s-3.967,25.077-10.866,41.504c-7.475,17.786-18.777,43.169-25.447,38.536
			c-5.927-3.707,18.778-50.644,3.233-72.137C111.464,28.533,80.791,1.88,80.791,1.88S87.706,18.679,82.766,31.526"/>
	</defs>
	<clipPath id="SVGID_8_">
		<use xlink:href="#SVGID_7_"  overflow="visible"/>
	</clipPath>
	<defs>
		<filter id="Adobe_OpacityMaskFilter" filterUnits="userSpaceOnUse" x="-0.497" y="-21.781" width="225.138" height="236.057">
			<feColorMatrix  type="matrix" values="1 0 0 0 0  0 1 0 0 0  0 0 1 0 0  0 0 0 1 0"/>
		</filter>
	</defs>
	<mask maskUnits="userSpaceOnUse" x="-0.497" y="-21.781" width="225.138" height="236.057" id="SVGID_9_">
		<g filter="url(#Adobe_OpacityMaskFilter)">
			
				<linearGradient id="SVGID_10_" gradientUnits="userSpaceOnUse" x1="-485.4961" y1="583.459" x2="-484.4961" y2="583.459" gradientTransform="matrix(-153.2928 -21.2798 -21.2798 153.2928 -61787.5859 -99660.3906)">
				<stop  offset="0" style="stop-color:#FFFFFF"/>
				<stop  offset="0.1166" style="stop-color:#FFFFFF"/>
				<stop  offset="0.8773" style="stop-color:#3D3D3D"/>
				<stop  offset="1" style="stop-color:#3D3D3D"/>
			</linearGradient>
			<polygon clip-path="url(#SVGID_8_)" fill="url(#SVGID_10_)" points="195.652,214.276 -0.497,187.048 28.493,-21.781 
				224.642,5.448 			"/>
		</g>
	</mask>
	
		<linearGradient id="SVGID_11_" gradientUnits="userSpaceOnUse" x1="-485.4961" y1="583.459" x2="-484.4961" y2="583.459" gradientTransform="matrix(-153.2928 -21.2798 -21.2798 153.2928 -61787.5859 -99660.3906)">
		<stop  offset="0" style="stop-color:#971B1E"/>
		<stop  offset="0.1166" style="stop-color:#971B1E"/>
		<stop  offset="0.8773" style="stop-color:#F18121"/>
		<stop  offset="1" style="stop-color:#F18121"/>
	</linearGradient>
	<polygon clip-path="url(#SVGID_8_)" mask="url(#SVGID_9_)" fill="url(#SVGID_11_)" points="195.652,214.276 -0.497,187.048 
		28.493,-21.781 224.642,5.448 	"/>
</g>
<g>
	<defs>
		<path id="SVGID_12_" d="M82.766,31.526c-4.939,12.846-40.304,58.762-48.419,78.063c-9.139,21.742-6.915,45.455,0,57.309
			c6.916,11.859,20.751,23.718,20.751,23.718h53.856l10.872-58.298l2.714-11.858c0,0,18.778-50.644,3.233-72.137
			C111.464,28.533,80.791,1.88,80.791,1.88S87.706,18.679,82.766,31.526"/>
	</defs>
	<clipPath id="SVGID_13_">
		<use xlink:href="#SVGID_12_"  overflow="visible"/>
	</clipPath>
	<defs>
		<filter id="Adobe_OpacityMaskFilter_1_" filterUnits="userSpaceOnUse" x="-62.182" y="-51.882" width="290.889" height="296.26">
			<feColorMatrix  type="matrix" values="1 0 0 0 0  0 1 0 0 0  0 0 1 0 0  0 0 0 1 0"/>
		</filter>
	</defs>
	<mask maskUnits="userSpaceOnUse" x="-62.182" y="-51.882" width="290.889" height="296.26" id="SVGID_14_">
		<g filter="url(#Adobe_OpacityMaskFilter_1_)">
			
				<linearGradient id="SVGID_15_" gradientUnits="userSpaceOnUse" x1="-485.4941" y1="583.4268" x2="-484.4941" y2="583.4268" gradientTransform="matrix(-67.9423 -101.057 -101.057 67.9424 26103.5762 -88536.4609)">
				<stop  offset="0" style="stop-color:#454545"/>
				<stop  offset="0.4801" style="stop-color:#FFFFFF"/>
				<stop  offset="0.8221" style="stop-color:#454545"/>
				<stop  offset="1" style="stop-color:#454545"/>
			</linearGradient>
			<polygon clip-path="url(#SVGID_13_)" fill="url(#SVGID_15_)" points="61.353,244.378 -62.182,60.633 105.173,-51.882 
				228.707,131.863 			"/>
		</g>
	</mask>
	
		<linearGradient id="SVGID_16_" gradientUnits="userSpaceOnUse" x1="-485.4941" y1="583.4268" x2="-484.4941" y2="583.4268" gradientTransform="matrix(-67.9423 -101.057 -101.057 67.9424 26103.5762 -88536.4609)">
		<stop  offset="0" style="stop-color:#F18121"/>
		<stop  offset="0.4801" style="stop-color:#96281F"/>
		<stop  offset="0.8221" style="stop-color:#F18121"/>
		<stop  offset="1" style="stop-color:#F18121"/>
	</linearGradient>
	<polygon clip-path="url(#SVGID_13_)" mask="url(#SVGID_14_)" fill="url(#SVGID_16_)" points="61.353,244.378 -62.182,60.633 
		105.173,-51.882 228.707,131.863 	"/>
</g>
<g>
	<defs>
		<path id="SVGID_17_" d="M82.766,31.526c-4.939,12.846-40.304,58.762-48.419,78.063c-9.139,21.742-6.915,45.455,0,57.309
			c6.916,11.859,20.751,23.718,20.751,23.718h53.856l10.872-58.298l2.714-11.858c0,0,18.778-50.644,3.233-72.137
			C111.464,28.533,80.791,1.88,80.791,1.88S87.706,18.679,82.766,31.526"/>
	</defs>
	<clipPath id="SVGID_18_">
		<use xlink:href="#SVGID_17_"  overflow="visible"/>
	</clipPath>
	<defs>
		<filter id="Adobe_OpacityMaskFilter_2_" filterUnits="userSpaceOnUse" x="-62.182" y="-51.882" width="290.889" height="296.26">
			<feColorMatrix  type="matrix" values="1 0 0 0 0  0 1 0 0 0  0 0 1 0 0  0 0 0 1 0"/>
		</filter>
	</defs>
	<mask maskUnits="userSpaceOnUse" x="-62.182" y="-51.882" width="290.889" height="296.26" id="SVGID_19_">
		<g filter="url(#Adobe_OpacityMaskFilter_2_)">
			
				<linearGradient id="SVGID_20_" gradientUnits="userSpaceOnUse" x1="-485.4941" y1="583.4268" x2="-484.4941" y2="583.4268" gradientTransform="matrix(-67.9423 -101.057 -101.057 67.9424 26103.5762 -88536.4609)">
				<stop  offset="0" style="stop-color:#454545"/>
				<stop  offset="0.0171" style="stop-color:#646464"/>
				<stop  offset="0.0411" style="stop-color:#888888"/>
				<stop  offset="0.0682" style="stop-color:#A8A8A8"/>
				<stop  offset="0.0981" style="stop-color:#C4C4C4"/>
				<stop  offset="0.1319" style="stop-color:#DADADA"/>
				<stop  offset="0.1714" style="stop-color:#EBEBEB"/>
				<stop  offset="0.2202" style="stop-color:#F6F6F6"/>
				<stop  offset="0.2886" style="stop-color:#FDFDFD"/>
				<stop  offset="0.4785" style="stop-color:#FFFFFF"/>
				<stop  offset="0.8221" style="stop-color:#454545"/>
				<stop  offset="1" style="stop-color:#454545"/>
			</linearGradient>
			<polygon clip-path="url(#SVGID_18_)" fill="url(#SVGID_20_)" points="61.353,244.378 -62.182,60.633 105.173,-51.882 
				228.707,131.863 			"/>
		</g>
	</mask>
	
		<linearGradient id="SVGID_21_" gradientUnits="userSpaceOnUse" x1="-485.4941" y1="583.4268" x2="-484.4941" y2="583.4268" gradientTransform="matrix(-67.9423 -101.057 -101.057 67.9424 26103.5762 -88536.4609)">
		<stop  offset="0" style="stop-color:#F18121"/>
		<stop  offset="0.015" style="stop-color:#DC6F22"/>
		<stop  offset="0.0489" style="stop-color:#BF5422"/>
		<stop  offset="0.0877" style="stop-color:#A93E20"/>
		<stop  offset="0.1331" style="stop-color:#992D1D"/>
		<stop  offset="0.1889" style="stop-color:#8E201B"/>
		<stop  offset="0.2668" style="stop-color:#88191A"/>
		<stop  offset="0.4785" style="stop-color:#861719"/>
		<stop  offset="0.8221" style="stop-color:#F18121"/>
		<stop  offset="1" style="stop-color:#F18121"/>
	</linearGradient>
	<polygon clip-path="url(#SVGID_18_)" mask="url(#SVGID_19_)" fill="url(#SVGID_21_)" points="61.353,244.378 -62.182,60.633 
		105.173,-51.882 228.707,131.863 	"/>
</g>
<g>
	<defs>
		<path id="SVGID_22_" d="M96.601,44.495c0.741,7.041,4.337,18.157-3.446,29.645c-7.78,11.486-38.537,37.796-46.689,50.765
			c-8.153,12.97-6.67,31.126-5.803,37.797c0.862,6.67,21.737,27.914,21.737,27.914h48.913c0,0-4.576-35.323-4.947-47.924
			c-0.372-12.598,4.904-29.895,8.764-50.395c4.775-25.356-14.157-48.958-17.909-48.956C96.751,43.341,96.519,43.711,96.601,44.495"
			/>
	</defs>
	<clipPath id="SVGID_23_">
		<use xlink:href="#SVGID_22_"  overflow="visible"/>
	</clipPath>
	
		<linearGradient id="SVGID_24_" gradientUnits="userSpaceOnUse" x1="-485.5005" y1="583.5059" x2="-484.5005" y2="583.5059" gradientTransform="matrix(23.0783 212.6778 212.6778 -23.0783 -112822.6953 116767.8438)">
		<stop  offset="0" style="stop-color:#96281F"/>
		<stop  offset="0.1166" style="stop-color:#96281F"/>
		<stop  offset="0.8773" style="stop-color:#F29224"/>
		<stop  offset="1" style="stop-color:#F29224"/>
	</linearGradient>
	<polygon clip-path="url(#SVGID_23_)" fill="url(#SVGID_24_)" points="118.956,34.588 135.7,188.902 39.263,199.367 22.518,45.053 	
		"/>
</g>
<g>
	<defs>
		<path id="SVGID_25_" d="M96.601,44.495c0.741,7.041-2.964,18.157-10.747,29.645c-7.782,11.486-38.537,37.796-46.689,50.765
			c-8.152,12.97-6.671,31.126-5.805,37.797c0.866,6.67,21.738,27.914,21.738,27.914h48.915c0,0-7.04-37.547-7.412-50.146
			c-0.372-12.597,4.446-28.906,8.895-49.284c4.034-18.491-7.182-47.654-8.745-47.65C96.591,43.536,96.532,43.842,96.601,44.495"/>
	</defs>
	<clipPath id="SVGID_26_">
		<use xlink:href="#SVGID_25_"  overflow="visible"/>
	</clipPath>
	
		<linearGradient id="SVGID_27_" gradientUnits="userSpaceOnUse" x1="-485.5015" y1="583.4971" x2="-484.5015" y2="583.4971" gradientTransform="matrix(-29.3869 -96.6031 -96.6031 29.3869 42195.3477 -63849.2539)">
		<stop  offset="0" style="stop-color:#96281F"/>
		<stop  offset="0.1166" style="stop-color:#96281F"/>
		<stop  offset="0.8773" style="stop-color:#F29224"/>
		<stop  offset="1" style="stop-color:#F29224"/>
	</linearGradient>
	<polygon clip-path="url(#SVGID_26_)" fill="url(#SVGID_27_)" points="37.664,212.478 -9.94,55.99 102.879,21.67 150.483,178.158 	
		"/>
</g>
<g>
	<defs>
		<path id="SVGID_28_" d="M96.601,44.396c0.741,7.042-2.964,18.158-10.747,29.645c-7.782,11.487-38.537,37.798-46.689,50.766
			c-8.152,12.97-6.671,31.127-5.805,37.797c0.864,6.67,21.738,27.918,21.738,27.918h48.915c0,0-7.04-37.551-7.412-50.15
			c-0.372-12.601,4.446-28.905,8.895-49.284c4.034-18.491-7.182-47.653-8.745-47.65C96.591,43.438,96.532,43.744,96.601,44.396"/>
	</defs>
	<clipPath id="SVGID_29_">
		<use xlink:href="#SVGID_28_"  overflow="visible"/>
	</clipPath>
	<defs>
		<filter id="Adobe_OpacityMaskFilter_3_" filterUnits="userSpaceOnUse" x="-1.305" y="26.183" width="143.154" height="181.59">
			<feColorMatrix  type="matrix" values="1 0 0 0 0  0 1 0 0 0  0 0 1 0 0  0 0 0 1 0"/>
		</filter>
	</defs>
	<mask maskUnits="userSpaceOnUse" x="-1.305" y="26.183" width="143.154" height="181.59" id="SVGID_30_">
		<g filter="url(#Adobe_OpacityMaskFilter_3_)">
			
				<linearGradient id="SVGID_31_" gradientUnits="userSpaceOnUse" x1="-485.4985" y1="583.6074" x2="-484.4983" y2="583.6074" gradientTransform="matrix(19.0347 -82.2246 -82.2246 -19.0347 57294.1445 -28675.7813)">
				<stop  offset="0" style="stop-color:#424242"/>
				<stop  offset="0.1166" style="stop-color:#424242"/>
				<stop  offset="0.8773" style="stop-color:#828282"/>
				<stop  offset="1" style="stop-color:#828282"/>
			</linearGradient>
			<polygon clip-path="url(#SVGID_29_)" fill="url(#SVGID_31_)" points="-1.305,183.041 35.007,26.183 141.849,50.917 
				105.536,207.773 			"/>
		</g>
	</mask>
	
		<linearGradient id="SVGID_32_" gradientUnits="userSpaceOnUse" x1="-485.4985" y1="583.6074" x2="-484.4983" y2="583.6074" gradientTransform="matrix(19.0347 -82.2246 -82.2246 -19.0347 57294.1445 -28675.7813)">
		<stop  offset="0" style="stop-color:#96281F"/>
		<stop  offset="0.1166" style="stop-color:#96281F"/>
		<stop  offset="0.8773" style="stop-color:#F1C522"/>
		<stop  offset="1" style="stop-color:#F1C522"/>
	</linearGradient>
	<polygon clip-path="url(#SVGID_29_)" mask="url(#SVGID_30_)" fill="url(#SVGID_32_)" points="-1.305,183.041 35.007,26.183 
		141.849,50.917 105.536,207.773 	"/>
</g>
<g>
	<defs>
		<path id="SVGID_33_" d="M154.778,67.102c-2.234,7.519-9.635,27.171-17.044,39.029c-7.412,11.859-11.214,17.946-18.774,25.2
			c-4.604,4.413-16.999,12.544-22.359,21.366c-10.622,17.496,4.817,37.826,4.817,37.826h56.326c0,0-2.225-6.328-3.672-12.254
			c-1.447-5.932-2.26-19.273,3.301-31.127c5.557-11.859,6.931-14.377,13.213-28.534c9.912-22.309,4.573-32.731-0.985-48.913
			c-3.884-11.312-10.005-24.951-10.005-24.951S157.497,57.958,154.778,67.102"/>
	</defs>
	<clipPath id="SVGID_34_">
		<use xlink:href="#SVGID_33_"  overflow="visible"/>
	</clipPath>
	
		<linearGradient id="SVGID_35_" gradientUnits="userSpaceOnUse" x1="-485.4922" y1="583.4473" x2="-484.4922" y2="583.4473" gradientTransform="matrix(-28.3884 -37.6726 -37.6726 28.3884 8349.1348 -34710.9961)">
		<stop  offset="0" style="stop-color:#96281F"/>
		<stop  offset="0.1166" style="stop-color:#96281F"/>
		<stop  offset="0.8773" style="stop-color:#F29224"/>
		<stop  offset="1" style="stop-color:#F29224"/>
	</linearGradient>
	<polygon clip-path="url(#SVGID_34_)" fill="url(#SVGID_35_)" points="120.212,235.951 15.913,97.542 146.265,-0.686 
		250.563,137.724 	"/>
</g>
<g>
	<defs>
		<path id="SVGID_36_" d="M154.778,67.102c-2.234,7.519-9.635,27.171-17.044,39.029c-7.412,11.859-11.214,17.946-18.774,25.2
			c-4.604,4.413-16.999,12.544-22.359,21.366c-10.622,17.496,4.817,37.826,4.817,37.826h56.326c0,0-2.225-6.328-3.672-12.254
			c-1.447-5.932-2.26-19.273,3.301-31.127c5.557-11.859,6.931-14.377,13.213-28.534c9.912-22.309,4.573-32.731-0.985-48.913
			c-3.884-11.312-10.005-24.951-10.005-24.951S157.497,57.958,154.778,67.102"/>
	</defs>
	<clipPath id="SVGID_37_">
		<use xlink:href="#SVGID_36_"  overflow="visible"/>
	</clipPath>
	<defs>
		<filter id="Adobe_OpacityMaskFilter_4_" filterUnits="userSpaceOnUse" x="15.913" y="-0.686" width="234.65" height="236.637">
			<feColorMatrix  type="matrix" values="1 0 0 0 0  0 1 0 0 0  0 0 1 0 0  0 0 0 1 0"/>
		</filter>
	</defs>
	<mask maskUnits="userSpaceOnUse" x="15.913" y="-0.686" width="234.65" height="236.637" id="SVGID_38_">
		<g filter="url(#Adobe_OpacityMaskFilter_4_)">
			
				<linearGradient id="SVGID_39_" gradientUnits="userSpaceOnUse" x1="-485.4922" y1="583.4473" x2="-484.4922" y2="583.4473" gradientTransform="matrix(-28.3884 -37.6726 -37.6726 28.3884 8349.1348 -34710.9961)">
				<stop  offset="0" style="stop-color:#424242"/>
				<stop  offset="0.1166" style="stop-color:#424242"/>
				<stop  offset="0.8773" style="stop-color:#404040"/>
				<stop  offset="1" style="stop-color:#404040"/>
			</linearGradient>
			<polygon clip-path="url(#SVGID_37_)" fill="url(#SVGID_39_)" points="120.212,235.951 15.913,97.542 146.265,-0.686 
				250.563,137.724 			"/>
		</g>
	</mask>
	
		<linearGradient id="SVGID_40_" gradientUnits="userSpaceOnUse" x1="-485.4922" y1="583.4473" x2="-484.4922" y2="583.4473" gradientTransform="matrix(-28.3884 -37.6726 -37.6726 28.3884 8349.1348 -34710.9961)">
		<stop  offset="0" style="stop-color:#96281F"/>
		<stop  offset="0.1166" style="stop-color:#96281F"/>
		<stop  offset="0.8773" style="stop-color:#F1C522"/>
		<stop  offset="1" style="stop-color:#F1C522"/>
	</linearGradient>
	<polygon clip-path="url(#SVGID_37_)" mask="url(#SVGID_38_)" fill="url(#SVGID_40_)" points="120.212,235.951 15.913,97.542 
		146.265,-0.686 250.563,137.724 	"/>
</g>
<g>
	<defs>
		<path id="SVGID_41_" d="M170.456,145.904c-3.83,5.769-8.32,9.119-15.553,16.059c-15.305,14.664,1.236,28.56,1.236,28.56h23.96
			c0,0,12.726-17.362,14.188-28.314c2.613-19.516-20.611-33.845-20.611-33.845S176.678,136.544,170.456,145.904"/>
	</defs>
	<clipPath id="SVGID_42_">
		<use xlink:href="#SVGID_41_"  overflow="visible"/>
	</clipPath>
	
		<linearGradient id="SVGID_43_" gradientUnits="userSpaceOnUse" x1="-485.499" y1="583.5576" x2="-484.499" y2="583.5576" gradientTransform="matrix(9.5441 -66.0813 -66.0813 -9.5441 43360.7305 -26329.5254)">
		<stop  offset="0" style="stop-color:#96281F"/>
		<stop  offset="0.1166" style="stop-color:#96281F"/>
		<stop  offset="0.8773" style="stop-color:#F18121"/>
		<stop  offset="1" style="stop-color:#F18121"/>
	</linearGradient>
	<polygon clip-path="url(#SVGID_42_)" fill="url(#SVGID_43_)" points="130.805,189.252 140.77,120.256 205.695,129.633 
		195.73,198.629 	"/>
</g>
<g>
	<defs>
		<path id="SVGID_44_" d="M170.456,145.855c-3.83,5.768-8.32,9.12-15.553,16.06c-15.305,14.667,1.236,28.559,1.236,28.559h23.96
			c0,0,12.726-17.362,14.188-28.311c2.613-19.521-20.611-33.845-20.611-33.845S176.678,136.494,170.456,145.855"/>
	</defs>
	<clipPath id="SVGID_45_">
		<use xlink:href="#SVGID_44_"  overflow="visible"/>
	</clipPath>
	<defs>
		<filter id="Adobe_OpacityMaskFilter_5_" filterUnits="userSpaceOnUse" x="122.292" y="112.363" width="91.915" height="94.065">
			<feColorMatrix  type="matrix" values="1 0 0 0 0  0 1 0 0 0  0 0 1 0 0  0 0 0 1 0"/>
		</filter>
	</defs>
	<mask maskUnits="userSpaceOnUse" x="122.292" y="112.363" width="91.915" height="94.065" id="SVGID_46_">
		<g filter="url(#Adobe_OpacityMaskFilter_5_)">
			
				<linearGradient id="SVGID_47_" gradientUnits="userSpaceOnUse" x1="-485.4941" y1="583.5273" x2="-484.4944" y2="583.5273" gradientTransform="matrix(-10.6583 -35.0368 -35.0368 10.6583 15440.8271 -23063.125)">
				<stop  offset="0" style="stop-color:#080808"/>
				<stop  offset="0.1166" style="stop-color:#080808"/>
				<stop  offset="0.7117" style="stop-color:#636363"/>
				<stop  offset="1" style="stop-color:#636363"/>
			</linearGradient>
			<polygon clip-path="url(#SVGID_45_)" fill="url(#SVGID_47_)" points="144.452,206.429 122.292,133.583 192.048,112.363 
				214.207,185.209 			"/>
		</g>
	</mask>
	
		<linearGradient id="SVGID_48_" gradientUnits="userSpaceOnUse" x1="-485.4941" y1="583.5273" x2="-484.4944" y2="583.5273" gradientTransform="matrix(-10.6583 -35.0368 -35.0368 10.6583 15440.8271 -23063.125)">
		<stop  offset="0" style="stop-color:#96281F"/>
		<stop  offset="0.1166" style="stop-color:#96281F"/>
		<stop  offset="0.7117" style="stop-color:#F1C522"/>
		<stop  offset="1" style="stop-color:#F1C522"/>
	</linearGradient>
	<polygon clip-path="url(#SVGID_45_)" mask="url(#SVGID_46_)" fill="url(#SVGID_48_)" points="144.452,206.429 122.292,133.583 
		192.048,112.363 214.207,185.209 	"/>
</g>
</svg>
